<svg width="80" height="12" viewBox="0 0 80 12" fill="none" xmlns="http://www.w3.org/2000/svg">
<path d="M15.3442 1.21618C15.5842 0.92818 15.8802 0.78418 16.2322 0.78418C16.5522 0.78418 16.8242 0.896179 17.0482 1.12018C17.2722 1.34418 17.3842 1.61618 17.3842 1.93618C17.3842 2.22418 17.3042 2.45618 17.1442 2.63218L17.1202 2.65618L11.3122 10.4802C11.0242 10.8482 10.6562 11.1522 10.2082 11.3922C9.7762 11.6162 9.3042 11.7282 8.7922 11.7282C8.3122 11.7282 7.8562 11.6242 7.4242 11.4162C7.0082 11.2082 6.6562 10.9202 6.3682 10.5522L0.536195 2.75218C0.440195 2.64018 0.360195 2.52018 0.296195 2.39218C0.232195 2.24818 0.200195 2.09618 0.200195 1.93618C0.200195 1.61618 0.312195 1.34418 0.536195 1.12018C0.760195 0.896179 1.0322 0.78418 1.3522 0.78418C1.7362 0.78418 2.0402 0.93618 2.2642 1.24018L7.8562 8.70418C7.9682 8.83218 8.1042 8.97618 8.2642 9.13618C8.4402 9.28018 8.6162 9.35218 8.7922 9.35218C8.9682 9.35218 9.1362 9.28018 9.2962 9.13618C9.4722 8.97618 9.6082 8.83218 9.7042 8.70418L15.3442 1.21618Z" fill="#FBF9F6"/>
<path d="M37.4579 0.78418C37.7779 0.78418 38.0499 0.896179 38.2739 1.12018C38.4979 1.34418 38.6099 1.61618 38.6099 1.93618C38.6099 2.24018 38.5059 2.50418 38.2979 2.72818C38.0899 2.93618 37.8419 3.05618 37.5539 3.08818H32.7299C32.2499 3.12018 31.8499 3.24018 31.5299 3.44818C31.2259 3.64018 30.9859 3.88018 30.8099 4.16818C30.6339 4.45618 30.5139 4.76818 30.4499 5.10418C30.3859 5.44018 30.3539 5.74418 30.3539 6.01618V10.0962C30.3539 10.4162 30.2419 10.6882 30.0179 10.9122C29.7939 11.1362 29.5219 11.2482 29.2019 11.2482C28.8819 11.2482 28.6099 11.1362 28.3859 10.9122C28.1619 10.6882 28.0499 10.4162 28.0499 10.0962V6.01618C28.0499 5.52018 28.1139 5.02418 28.2419 4.52818C28.3699 4.01618 28.5619 3.53618 28.8179 3.08818H20.9459C20.6259 3.08818 20.3539 2.97618 20.1299 2.75218C19.9059 2.52818 19.7939 2.25618 19.7939 1.93618C19.7939 1.61618 19.9059 1.34418 20.1299 1.12018C20.3539 0.896179 20.6259 0.78418 20.9459 0.78418H37.4579Z" fill="#FBF9F6"/>
<path d="M56.1489 1.21618C56.3889 0.92818 56.6849 0.78418 57.0369 0.78418C57.3569 0.78418 57.6289 0.896179 57.8529 1.12018C58.0769 1.34418 58.1889 1.61618 58.1889 1.93618C58.1889 2.22418 58.1089 2.45618 57.9489 2.63218L57.9249 2.65618L52.1169 10.4802C51.8289 10.8482 51.4609 11.1522 51.0129 11.3922C50.5809 11.6162 50.1089 11.7282 49.5969 11.7282C49.1169 11.7282 48.6609 11.6242 48.2289 11.4162C47.8129 11.2082 47.4609 10.9202 47.1729 10.5522L41.3409 2.75218C41.2449 2.64018 41.1649 2.52018 41.1009 2.39218C41.0369 2.24818 41.0049 2.09618 41.0049 1.93618C41.0049 1.61618 41.1169 1.34418 41.3409 1.12018C41.5649 0.896179 41.8369 0.78418 42.1569 0.78418C42.5409 0.78418 42.8449 0.93618 43.0689 1.24018L48.6609 8.70418C48.7729 8.83218 48.9089 8.97618 49.0689 9.13618C49.2449 9.28018 49.4209 9.35218 49.5969 9.35218C49.7729 9.35218 49.9409 9.28018 50.1009 9.13618C50.2769 8.97618 50.4129 8.83218 50.5089 8.70418L56.1489 1.21618Z" fill="#FBF9F6"/>
<path d="M63.8866 11.2482C63.4386 11.2482 63.0146 11.1682 62.6146 11.0082C62.2146 10.8322 61.8626 10.6002 61.5586 10.3122C61.2706 10.0242 61.0386 9.68818 60.8626 9.30418C60.6866 8.92018 60.5986 8.50418 60.5986 8.05618V1.93618C60.5986 1.61618 60.7106 1.34418 60.9346 1.12018C61.1586 0.896179 61.4306 0.78418 61.7506 0.78418C62.0546 0.78418 62.3186 0.896179 62.5426 1.12018C62.7826 1.34418 62.9026 1.61618 62.9026 1.93618V8.05618C62.9026 8.29618 62.9906 8.50418 63.1666 8.68018C63.3586 8.85618 63.5746 8.94418 63.8146 8.94418H78.2146C78.5346 8.94418 78.8066 9.05618 79.0306 9.28018C79.2546 9.50418 79.3666 9.77618 79.3666 10.0962C79.3666 10.4162 79.2546 10.6882 79.0306 10.9122C78.8066 11.1362 78.5346 11.2482 78.2146 11.2482H63.8866Z" fill="#FBF9F6"/>
</svg>
