<svg width="32" height="32" viewBox="0 0 32 32" fill="none" xmlns="http://www.w3.org/2000/svg">
<rect width="32" height="32" rx="8" fill="#F2EAE0"/>
<path d="M22.1006 11.4022C22.324 11.1341 22.5996 11 22.9274 11C23.2253 11 23.4786 11.1043 23.6872 11.3128C23.8957 11.5214 24 11.7747 24 12.0726C24 12.3408 23.9255 12.5568 23.7765 12.7207L23.7542 12.743L18.3464 20.0279C18.0782 20.3706 17.7356 20.6536 17.3184 20.8771C16.9162 21.0857 16.4767 21.1899 16 21.1899C15.5531 21.1899 15.1285 21.0931 14.7263 20.8994C14.3389 20.7058 14.0112 20.4376 13.743 20.095L8.31285 12.8324C8.22346 12.7281 8.14898 12.6164 8.08939 12.4972C8.0298 12.3631 8 12.2216 8 12.0726C8 11.7747 8.10428 11.5214 8.31285 11.3128C8.52142 11.1043 8.77467 11 9.07263 11C9.43017 11 9.71322 11.1415 9.92179 11.4246L15.1285 18.3743C15.2328 18.4935 15.3594 18.6276 15.5084 18.7765C15.6723 18.9106 15.8361 18.9777 16 18.9777C16.1639 18.9777 16.3203 18.9106 16.4693 18.7765C16.6331 18.6276 16.7598 18.4935 16.8492 18.3743L22.1006 11.4022Z" fill="#673A58"/>
</svg>
