<svg width="80" height="12" viewBox="0 0 80 12" fill="none" xmlns="http://www.w3.org/2000/svg">
<path d="M15.344 1.21594C15.584 0.927936 15.88 0.783936 16.232 0.783936C16.552 0.783936 16.824 0.895935 17.048 1.11993C17.272 1.34393 17.384 1.61593 17.384 1.93594C17.384 2.22394 17.304 2.45594 17.144 2.63194L17.12 2.65593L11.312 10.4799C11.024 10.8479 10.656 11.1519 10.208 11.3919C9.776 11.6159 9.304 11.7279 8.792 11.7279C8.312 11.7279 7.856 11.6239 7.424 11.4159C7.008 11.2079 6.656 10.9199 6.368 10.5519L0.535997 2.75194C0.439997 2.63994 0.359997 2.51994 0.295997 2.39193C0.231997 2.24793 0.199997 2.09593 0.199997 1.93594C0.199997 1.61593 0.311997 1.34393 0.535997 1.11993C0.759997 0.895935 1.032 0.783936 1.352 0.783936C1.736 0.783936 2.04 0.935935 2.264 1.23994L7.856 8.70394C7.968 8.83193 8.104 8.97593 8.264 9.13593C8.44 9.27993 8.616 9.35193 8.792 9.35193C8.968 9.35193 9.136 9.27993 9.296 9.13593C9.472 8.97593 9.608 8.83193 9.704 8.70394L15.344 1.21594Z" fill="#673A58"/>
<path d="M37.4577 0.783936C37.7777 0.783936 38.0497 0.895935 38.2737 1.11993C38.4977 1.34393 38.6097 1.61593 38.6097 1.93594C38.6097 2.23993 38.5057 2.50393 38.2977 2.72793C38.0897 2.93593 37.8417 3.05593 37.5537 3.08793H32.7297C32.2497 3.11994 31.8497 3.23993 31.5297 3.44793C31.2257 3.63994 30.9857 3.87994 30.8097 4.16793C30.6337 4.45594 30.5137 4.76793 30.4497 5.10393C30.3857 5.43993 30.3537 5.74394 30.3537 6.01594V10.0959C30.3537 10.4159 30.2417 10.6879 30.0177 10.9119C29.7937 11.1359 29.5217 11.2479 29.2017 11.2479C28.8817 11.2479 28.6097 11.1359 28.3857 10.9119C28.1617 10.6879 28.0497 10.4159 28.0497 10.0959V6.01594C28.0497 5.51994 28.1137 5.02394 28.2417 4.52794C28.3697 4.01594 28.5617 3.53593 28.8177 3.08793H20.9457C20.6257 3.08793 20.3537 2.97594 20.1297 2.75194C19.9057 2.52794 19.7937 2.25594 19.7937 1.93594C19.7937 1.61593 19.9057 1.34393 20.1297 1.11993C20.3537 0.895935 20.6257 0.783936 20.9457 0.783936H37.4577Z" fill="#673A58"/>
<path d="M56.1487 1.21594C56.3887 0.927936 56.6847 0.783936 57.0367 0.783936C57.3567 0.783936 57.6287 0.895935 57.8527 1.11993C58.0767 1.34393 58.1887 1.61593 58.1887 1.93594C58.1887 2.22394 58.1087 2.45594 57.9487 2.63194L57.9247 2.65593L52.1167 10.4799C51.8287 10.8479 51.4607 11.1519 51.0127 11.3919C50.5807 11.6159 50.1087 11.7279 49.5967 11.7279C49.1167 11.7279 48.6607 11.6239 48.2287 11.4159C47.8127 11.2079 47.4607 10.9199 47.1727 10.5519L41.3407 2.75194C41.2447 2.63994 41.1647 2.51994 41.1007 2.39193C41.0367 2.24793 41.0047 2.09593 41.0047 1.93594C41.0047 1.61593 41.1167 1.34393 41.3407 1.11993C41.5647 0.895935 41.8367 0.783936 42.1567 0.783936C42.5407 0.783936 42.8447 0.935935 43.0687 1.23994L48.6607 8.70394C48.7727 8.83193 48.9087 8.97593 49.0687 9.13593C49.2447 9.27993 49.4207 9.35193 49.5967 9.35193C49.7727 9.35193 49.9407 9.27993 50.1007 9.13593C50.2767 8.97593 50.4127 8.83193 50.5087 8.70394L56.1487 1.21594Z" fill="#673A58"/>
<path d="M63.8864 11.2479C63.4384 11.2479 63.0144 11.1679 62.6144 11.0079C62.2144 10.8319 61.8624 10.5999 61.5584 10.3119C61.2704 10.0239 61.0384 9.68794 60.8624 9.30394C60.6864 8.91994 60.5984 8.50394 60.5984 8.05594V1.93594C60.5984 1.61593 60.7104 1.34393 60.9344 1.11993C61.1584 0.895935 61.4304 0.783936 61.7504 0.783936C62.0544 0.783936 62.3184 0.895935 62.5424 1.11993C62.7824 1.34393 62.9024 1.61593 62.9024 1.93594V8.05594C62.9024 8.29594 62.9904 8.50394 63.1664 8.67994C63.3584 8.85594 63.5744 8.94394 63.8144 8.94394H78.2144C78.5344 8.94394 78.8064 9.05594 79.0304 9.27994C79.2544 9.50394 79.3664 9.77594 79.3664 10.0959C79.3664 10.4159 79.2544 10.6879 79.0304 10.9119C78.8064 11.1359 78.5344 11.2479 78.2144 11.2479H63.8864Z" fill="#673A58"/>
</svg>
